<?xml version="1.0" encoding="UTF-8" standalone="no"?>
<svg
   width="675"
   height="106"
   viewBox="0 0 675 106"
   fill="none"
   version="1.1"
   id="svg1"
   sodipodi:docname="Snyk Security Headers Logo - Light.svg"
   inkscape:version="1.4.1 (93de688d07, 2025-03-30)"
   xmlns:inkscape="http://www.inkscape.org/namespaces/inkscape"
   xmlns:sodipodi="http://sodipodi.sourceforge.net/DTD/sodipodi-0.dtd"
   xmlns="http://www.w3.org/2000/svg"
   xmlns:svg="http://www.w3.org/2000/svg">
  <defs
     id="defs1" />
  <sodipodi:namedview
     id="namedview1"
     pagecolor="#505050"
     bordercolor="#eeeeee"
     borderopacity="1"
     inkscape:showpageshadow="0"
     inkscape:pageopacity="0"
     inkscape:pagecheckerboard="0"
     inkscape:deskcolor="#d1d1d1"
     showguides="true"
     inkscape:zoom="6.0714574"
     inkscape:cx="205.88137"
     inkscape:cy="99.317175"
     inkscape:window-width="3186"
     inkscape:window-height="1752"
     inkscape:window-x="132"
     inkscape:window-y="159"
     inkscape:window-maximized="1"
     inkscape:current-layer="svg1">
    <sodipodi:guide
       position="148.78423,5.2027952"
       orientation="1,0"
       id="guide1"
       inkscape:locked="false" />
    <sodipodi:guide
       position="155.00693,82.963456"
       orientation="1,0"
       id="guide2"
       inkscape:locked="false" />
  </sodipodi:namedview>
  <path
     fill-rule="evenodd"
     clip-rule="evenodd"
     d="m 314.107,12.344 c -1.98,0 -3.608,-0.572 -4.884,-1.716 -1.232,-1.18803 -1.848,-2.64003 -1.848,-4.35603 0,-1.76 0.616,-3.212 1.848,-4.356 1.276,-1.187999 2.904,-1.781998 4.884,-1.781998 1.936,0 3.52,0.593999 4.752,1.781998 1.276,1.144 1.914,2.596 1.914,4.356 0,1.716 -0.638,3.168 -1.914,4.35603 -1.232,1.144 -2.816,1.716 -4.752,1.716 z m 5.61,3.828 V 53 H 308.431 V 16.172 Z M 532.653,34.52 c 0,-3.784 0.704,-7.106 2.112,-9.966 1.452,-2.86 3.41,-5.06 5.874,-6.6 2.464,-1.54 5.214,-2.31 8.25,-2.31 2.42,0 4.62,0.506 6.6,1.518 2.024,1.012 3.608,2.376 4.752,4.092 V 4.15997 h 11.286 V 53 h -11.286 v -5.28 c -1.056,1.76 -2.574,3.168 -4.554,4.224 -1.937,1.056 -4.202,1.584 -6.798,1.584 -3.036,0 -5.786,-0.77 -8.25,-2.31 -2.464,-1.584 -4.422,-3.806 -5.874,-6.666 -1.408,-2.904 -2.112,-6.248 -2.112,-10.032 z m 27.588,0.066 c 0,-2.816 -0.793,-5.038 -2.376,-6.666 -1.54,-1.628 -3.433,-2.442 -5.676,-2.442 -2.244,0 -4.158,0.814 -5.742,2.442 -1.541,1.584 -2.31,3.784 -2.31,6.6 0,2.816 0.769,5.06 2.31,6.732 1.584,1.628 3.498,2.442 5.742,2.442 2.243,0 4.136,-0.814 5.676,-2.442 1.583,-1.628 2.376,-3.85 2.376,-6.666 z m 52.648,2.706 c 0.132,-1.144 0.198,-2.244 0.198,-3.3 0,-3.696 -0.792,-6.93 -2.376,-9.702 -1.54,-2.772 -3.696,-4.906 -6.468,-6.402 -2.772,-1.496 -5.94,-2.244 -9.504,-2.244 -3.652,0 -6.886,0.77 -9.702,2.31 -2.816,1.54 -5.016,3.74 -6.6,6.6 -1.54,2.86 -2.31,6.204 -2.31,10.032 0,3.828 0.792,7.172 2.376,10.032 1.584,2.86 3.784,5.06 6.6,6.6 2.816,1.54 6.028,2.31 9.636,2.31 2.992,0 5.698,-0.55 8.118,-1.65 2.42,-1.1 4.422,-2.618 6.006,-4.554 1.628,-1.936 2.75,-4.114 3.366,-6.534 h -12.012 c -1.1,2.376 -3.058,3.564 -5.874,3.564 -1.892,0 -3.498,-0.594 -4.818,-1.782 -1.276,-1.232 -2.002,-2.992 -2.178,-5.28 z m -13.332,-10.89 c 1.32,1.144 1.98,2.684 1.98,4.62 h -14.124 c 0.308,-2.024 1.1,-3.586 2.376,-4.686 1.32,-1.1 2.926,-1.65 4.818,-1.65 1.98,0 3.63,0.572 4.95,1.716 z m 60.057,27.126 c -3.212,0 -6.072,-0.55 -8.58,-1.65 -2.508,-1.1 -4.488,-2.596 -5.94,-4.488 -1.452,-1.936 -2.266,-4.092 -2.442,-6.468 h 11.154 c 0.132,1.276 0.726,2.31 1.782,3.102 1.056,0.792 2.354,1.188 3.894,1.188 1.408,0 2.486,-0.264 3.234,-0.792 0.792,-0.572 1.188,-1.298 1.188,-2.178 0,-1.056 -0.55,-1.826 -1.65,-2.31 -1.1,-0.528 -2.882,-1.1 -5.346,-1.716 -2.64,-0.616 -4.84,-1.254 -6.6,-1.914 -1.76,-0.704 -3.278,-1.782 -4.554,-3.234 -1.276,-1.496 -1.914,-3.498 -1.914,-6.006 0,-2.112 0.572,-4.026 1.716,-5.742 1.188,-1.76 2.904,-3.146 5.148,-4.158 2.288,-1.012 4.994,-1.518 8.118,-1.518 4.62,0 8.25,1.144 10.89,3.432 2.684,2.288 4.224,5.324 4.62,9.108 h -10.428 c -0.176,-1.276 -0.748,-2.288 -1.716,-3.036 -0.924,-0.748 -2.156,-1.122 -3.696,-1.122 -1.32,0 -2.332,0.264 -3.036,0.792 -0.704,0.484 -1.056,1.166 -1.056,2.046 0,1.056 0.55,1.848 1.65,2.376 1.144,0.528 2.904,1.056 5.28,1.584 2.728,0.704 4.95,1.408 6.666,2.112 1.716,0.66 3.212,1.76 4.488,3.3 1.32,1.496 2.002,3.52 2.046,6.072 0,2.156 -0.616,4.092 -1.848,5.808 -1.188,1.672 -2.926,2.992 -5.214,3.96 -2.244,0.968 -4.862,1.452 -7.854,1.452 z M 629.007,22.31 c 1.32,-2.024 2.97,-3.608 4.95,-4.752 1.98,-1.188 4.18,-1.782 6.6,-1.782 v 11.946 h -3.102 c -2.816,0 -4.928,0.616 -6.336,1.848 -1.408,1.188 -2.112,3.3 -2.112,6.336 V 53 H 617.721 V 16.172 h 11.286 z M 491.29,24.554 c -1.408,2.86 -2.112,6.182 -2.112,9.966 0,3.784 0.704,7.128 2.112,10.032 1.452,2.86 3.41,5.082 5.874,6.666 2.464,1.54 5.192,2.31 8.184,2.31 2.596,0 4.862,-0.528 6.798,-1.584 1.98,-1.056 3.52,-2.442 4.62,-4.158 V 53 h 11.286 V 16.172 h -11.286 v 5.214 c -1.056,-1.716 -2.574,-3.102 -4.554,-4.158 -1.936,-1.056 -4.202,-1.584 -6.798,-1.584 -3.036,0 -5.786,0.77 -8.25,2.31 -2.464,1.54 -4.422,3.74 -5.874,6.6 z m 23.1,3.366 c 1.584,1.628 2.376,3.85 2.376,6.666 0,2.816 -0.792,5.038 -2.376,6.666 -1.54,1.628 -3.432,2.442 -5.676,2.442 -2.244,0 -4.158,-0.814 -5.742,-2.442 -1.54,-1.672 -2.31,-3.916 -2.31,-6.732 0,-2.816 0.77,-5.016 2.31,-6.6 1.584,-1.628 3.498,-2.442 5.742,-2.442 2.244,0 4.136,0.814 5.676,2.442 z m -27.602,6.072 c 0,1.056 -0.066,2.156 -0.198,3.3 h -25.542 c 0.176,2.288 0.902,4.048 2.178,5.28 1.32,1.188 2.926,1.782 4.818,1.782 2.816,0 4.774,-1.188 5.874,-3.564 h 12.012 c -0.616,2.42 -1.738,4.598 -3.366,6.534 -1.584,1.936 -3.586,3.454 -6.006,4.554 -2.42,1.1 -5.126,1.65 -8.118,1.65 -3.608,0 -6.82,-0.77 -9.636,-2.31 -2.816,-1.54 -5.016,-3.74 -6.6,-6.6 -1.584,-2.86 -2.376,-6.204 -2.376,-10.032 0,-3.828 0.77,-7.172 2.31,-10.032 1.584,-2.86 3.784,-5.06 6.6,-6.6 2.816,-1.54 6.05,-2.31 9.702,-2.31 3.564,0 6.732,0.748 9.504,2.244 2.772,1.496 4.928,3.63 6.468,6.402 1.584,2.772 2.376,6.006 2.376,9.702 z m -11.55,-2.97 c 0,-1.936 -0.66,-3.476 -1.98,-4.62 -1.32,-1.144 -2.97,-1.716 -4.95,-1.716 -1.892,0 -3.498,0.55 -4.818,1.65 -1.276,1.1 -2.068,2.662 -2.376,4.686 z M 445.244,53 V 6.66797 H 433.958 V 24.818 H 416.402 V 6.66797 H 405.116 V 53 h 11.286 V 33.926 h 17.556 V 53 Z m -55.555,-36.828 -23.1,54.318 h -12.144 l 8.448,-18.744 -14.982,-35.574 h 12.606 l 8.514,23.034 8.448,-23.034 z M 347.102,53 v -9.57 h -4.026 c -1.232,0 -2.112,-0.242 -2.64,-0.726 -0.528,-0.484 -0.792,-1.276 -0.792,-2.376 V 25.544 h 7.392 v -9.372 h -7.392 V 7.19598 H 328.358 V 16.172 h -4.488 v 9.372 h 4.488 v 14.652 c 0,4.532 1.144,7.81 3.432,9.834 2.288,1.98 5.478,2.97 9.57,2.97 z M 297.757,17.558 c -1.98,1.144 -3.63,2.728 -4.95,4.752 V 16.172 H 281.521 V 53 h 11.286 V 35.906 c 0,-3.036 0.704,-5.148 2.112,-6.336 1.408,-1.232 3.52,-1.848 6.336,-1.848 h 3.102 V 15.776 c -2.42,0 -4.62,0.594 -6.6,1.782 z M 274.734,16.172 V 53 h -11.286 v -5.016 c -1.144,1.628 -2.706,2.948 -4.686,3.96 -1.936,0.968 -4.092,1.452 -6.468,1.452 -2.816,0 -5.302,-0.616 -7.458,-1.848 -2.156,-1.276 -3.828,-3.102 -5.016,-5.478 -1.188,-2.376 -1.782,-5.17 -1.782,-8.382 V 16.172 h 11.22 V 36.17 c 0,2.464 0.638,4.378 1.914,5.742 1.276,1.364 2.992,2.046 5.148,2.046 2.2,0 3.938,-0.682 5.214,-2.046 1.276,-1.364 1.914,-3.278 1.914,-5.742 V 16.172 Z m -74.941,8.382 c -1.54,2.86 -2.31,6.204 -2.31,10.032 0,3.828 0.77,7.172 2.31,10.032 1.584,2.86 3.762,5.06 6.534,6.6 2.816,1.54 6.028,2.31 9.636,2.31 4.576,0 8.426,-1.232 11.55,-3.696 3.124,-2.464 5.17,-5.852 6.138,-10.164 h -12.012 c -1.012,2.816 -2.97,4.224 -5.874,4.224 -2.068,0 -3.718,-0.792 -4.95,-2.376 -1.232,-1.628 -1.848,-3.938 -1.848,-6.93 0,-2.992 0.616,-5.28 1.848,-6.864 1.232,-1.628 2.882,-2.442 4.95,-2.442 2.904,0 4.862,1.408 5.874,4.224 h 12.012 c -0.968,-4.4 -3.014,-7.81 -6.138,-10.23 -3.08,-2.42 -6.93,-3.63 -11.55,-3.63 -3.608,0 -6.82,0.77 -9.636,2.31 -2.772,1.54 -4.95,3.74 -6.534,6.6 z m -4.7,9.438 c 0,1.056 -0.066,2.156 -0.198,3.3 h -25.542 c 0.176,2.288 0.902,4.048 2.178,5.28 1.32,1.188 2.926,1.782 4.818,1.782 2.816,0 4.774,-1.188 5.874,-3.564 h 12.012 c -0.616,2.42 -1.738,4.598 -3.366,6.534 -1.584,1.936 -3.586,3.454 -6.006,4.554 -2.42,1.1 -5.126,1.65 -8.118,1.65 -3.608,0 -6.82,-0.77 -9.636,-2.31 -2.816,-1.54 -5.016,-3.74 -6.6,-6.6 -1.584,-2.86 -2.376,-6.204 -2.376,-10.032 0,-3.828 0.77,-7.172 2.31,-10.032 1.584,-2.86 3.784,-5.06 6.6,-6.6 2.816,-1.54 6.05,-2.31 9.702,-2.31 3.564,0 6.732,0.748 9.504,2.244 2.772,1.496 4.928,3.63 6.468,6.402 1.584,2.772 2.376,6.006 2.376,9.702 z m -11.55,-2.97 c 0,-1.936 -0.66,-3.476 -1.98,-4.62 -1.32,-1.144 -2.97,-1.716 -4.95,-1.716 -1.892,0 -3.498,0.55 -4.818,1.65 -1.276,1.1 -2.068,2.662 -2.376,4.686 z m -54.795,20.79 c 2.684,1.1 5.72,1.65 9.108,1.65 3.476,0 6.49,-0.638 9.042,-1.914 2.552,-1.276 4.488,-2.992 5.808,-5.148 1.364,-2.156 2.046,-4.554 2.046,-7.194 0,-2.772 -0.682,-5.038 -2.046,-6.798 -1.364,-1.76 -2.992,-3.102 -4.884,-4.026 -1.848,-0.924 -4.268,-1.892 -7.26,-2.904 -2.992,-0.968 -5.192,-1.87 -6.6,-2.706 -1.408,-0.836 -2.112,-2.002 -2.112,-3.498 0,-1.364 0.418,-2.398 1.254,-3.102 0.836,-0.748 1.936,-1.122 3.3,-1.122 1.584,0 2.882,0.44 3.894,1.32 1.012,0.836 1.562,2.002 1.65,3.498 h 12.21 C 153.938,15.512 152.266,12.124 149.142,9.70399 146.018,7.23999 141.904,6.008 136.8,6.008 c -5.016,0 -9.086,1.23199 -12.21,3.69599 -3.124,2.42001 -4.686,5.78601 -4.686,10.09801 0,2.904 0.682,5.258 2.046,7.062 1.364,1.804 2.992,3.168 4.884,4.092 1.892,0.924 4.334,1.848 7.326,2.772 2.068,0.616 3.652,1.166 4.752,1.65 1.144,0.484 2.09,1.1 2.838,1.848 0.792,0.748 1.188,1.694 1.188,2.838 0,1.364 -0.484,2.442 -1.452,3.234 -0.968,0.748 -2.288,1.122 -3.96,1.122 -1.628,0 -2.948,-0.44 -3.96,-1.32 -1.012,-0.924 -1.606,-2.244 -1.782,-3.96 h -12.012 c 0.088,3.036 0.924,5.632 2.508,7.788 1.628,2.156 3.784,3.784 6.468,4.884 z M 50.4421,4 C 22.5841,4 0,26.7511 0,54.8151 0,82.879 22.5841,105.63 50.4421,105.63 78.3,105.63 100.884,82.879 100.884,54.8151 100.884,26.7511 78.3,4 50.4421,4 Z M 88.9946,44.3037 72.1917,60.8004 c -0.5274,0.5179 -0.7744,1.2711 -0.6476,2.0041 l 3.9654,23.2959 c 0.3138,1.8494 -1.6155,3.2616 -3.2644,2.3874 L 51.4835,77.4922 c -0.6542,-0.3497 -1.4353,-0.3497 -2.0962,0 L 28.6257,88.4878 c -1.6489,0.8742 -3.5716,-0.538 -3.2578,-2.3874 l 3.9654,-23.2959 c 0.1268,-0.733 -0.1202,-1.4862 -0.6476,-2.0041 L 11.8829,44.3037 c -1.3285,-1.3114 -0.5942,-3.5912 1.2483,-3.8602 l 23.2183,-3.3962 c 0.7277,-0.1076 1.3619,-0.5717 1.689,-1.2374 L 48.426,14.619 c 0.8211,-1.688 3.2043,-1.688 4.0321,0 l 10.3808,21.1909 c 0.3272,0.6657 0.9614,1.1298 1.689,1.2374 l 23.2183,3.3962 c 1.8492,0.269 2.5769,2.5488 1.2484,3.8602 z m 66.05922,49.6885 0.001,-0.0073 c 1.636,0.7867 3.553,1.1917 5.913,1.1917 4.278,0 7.395,-2.0181 7.395,-5.5324 0,-3.2579 -2.898,-4.3527 -5.12,-5.1921 -1.381,-0.5217 -2.501,-0.9448 -2.501,-1.7274 0,-0.6234 0.78,-0.9663 1.754,-0.9663 1.574,0 3.467,0.4988 4.854,1.0364 l 0.538,-3.7091 c -1.317,-0.4675 -3.366,-1.0052 -5.346,-1.0052 -3.974,0 -7.145,1.8234 -7.145,5.2831 0,3.34 2.845,4.4269 5.02,5.2581 1.347,0.5146 2.437,0.9312 2.437,1.7238 0,0.7246 -0.787,1.1298 -1.979,1.1298 -1.637,0 -3.592,-0.4052 -5.322,-1.2545 l -0.498,3.7641 -0.001,-5e-4 z m 26.54,-8.5013 c 0,-2.135 -0.943,-3.148 -2.743,-3.148 -0.88,0 -1.8,0.2493 -2.423,0.6311 v 11.8598 h -5.532 v -16.2 l 5.415,-0.4442 -0.132,2.6494 h 0.187 c 1.169,-1.5741 3.148,-2.7663 5.509,-2.7663 2.828,0 5.283,1.7533 5.283,5.9065 V 94.826 h -5.556 v -9.3429 z m 16.715,0.3818 2.267,-7.387 h 5.478 l -6.421,16.3013 c -1.917,4.9013 -2.70582,8.213 -6.79682,8.213 -1.574,0 -2.898,-0.405 -3.592,-0.803 l 0.25882,-3.4048 c 0.328,0.039 0.67,0.0546 1.013,0.0546 1.886,0 3.304,-1.8312 4.224,-4.013 l -6.741,-16.3559 h 6.203 l 2.423,7.3013 c 0.476,1.387 0.811,4.0364 0.811,4.0364 0,0 0.436,-2.5559 0.88,-3.9429 z m 15.42,1.2546 h -0.444 v 7.7065 h -5.532 V 75.6494 L 213.28482,67 v 17.8987 c 1.099,-1.348 4.808,-6.4753 4.808,-6.4753 h 6.834 l -6.476,6.8571 6.702,9.5689 h -6.99 z M 148.675,82.258 l -7.889,18.768 h -3.427 l 2.76,-6.348 -5.106,-12.42 h 3.611 l 3.289,8.901 3.335,-8.901 z m -22.166,0.368 c -0.721,0.3833 -1.288,0.8817 -1.702,1.495 V 77.98 h -3.22 V 95 h 3.22 v -1.817 c 0.429,0.598 0.997,1.0887 1.702,1.472 0.721,0.368 1.556,0.552 2.507,0.552 1.089,0 2.07,-0.276 2.944,-0.828 0.889,-0.552 1.587,-1.3263 2.093,-2.323 0.521,-1.012 0.782,-2.1697 0.782,-3.473 0,-1.3033 -0.261,-2.4457 -0.782,-3.427 -0.506,-0.9967 -1.204,-1.7633 -2.093,-2.3 -0.874,-0.5367 -1.855,-0.805 -2.944,-0.805 -0.935,0 -1.771,0.1917 -2.507,0.575 z m 4.554,3.979 c 0.322,0.552 0.483,1.2113 0.483,1.978 0,0.782 -0.161,1.4567 -0.483,2.024 -0.307,0.5673 -0.721,1.0043 -1.242,1.311 -0.506,0.3067 -1.058,0.46 -1.656,0.46 -0.583,0 -1.135,-0.1457 -1.656,-0.437 -0.506,-0.3067 -0.92,-0.7437 -1.242,-1.311 -0.307,-0.5673 -0.46,-1.2343 -0.46,-2.001 0,-0.7667 0.153,-1.4337 0.46,-2.001 0.322,-0.5673 0.736,-0.9967 1.242,-1.288 0.521,-0.3067 1.073,-0.46 1.656,-0.46 0.598,0 1.15,0.1457 1.656,0.437 0.521,0.2913 0.935,0.7207 1.242,1.288 z"
     fill="#ffffff"
     id="path1"
     sodipodi:nodetypes="scscscscscccccscssccccccccsccsscscscscscscssscssssscccscccscccsssscccsscsccccsccsccccscscccccccsccccscsccccccsccsccccccccssccscscscscscccscccssssscssscscsscccccccccccccccccccccccccccsssccccccccccscscccccccscsccccccccscssccssssscccsccssccscscscccsccscccscccssssscssscscsscccssscssccsscsccccscssscccscsccccsssssscccccccccccccccccccccccsssssccsscsscccccscccccccssccccccccsccscccccccccccccccccccccccccccccccccccccsccsccsccsccsccsccscc" />
</svg>
